<svg width="71" height="72" viewBox="0 0 71 72" fill="none" xmlns="http://www.w3.org/2000/svg">
<path d="M35.5 0.267181C15.9552 0.267181 0.110962 16.1114 0.110962 35.6562C0.110962 55.201 15.9552 71.0452 35.5 71.0452C55.0447 71.0452 70.8889 55.201 70.8889 35.6562C70.8682 16.1201 55.0362 0.288065 35.5 0.267181ZM50.4036 36.7838C50.1587 37.2752 49.7604 37.6736 49.2688 37.9186V37.9312L29.0465 48.0424C27.7977 48.6664 26.2795 48.16 25.6554 46.9111C25.4779 46.5561 25.3865 46.1642 25.3887 45.7674V25.5451C25.3882 24.149 26.5193 23.0168 27.9154 23.0161C28.308 23.0159 28.6954 23.1072 29.0465 23.2827L49.2688 33.3939C50.5183 34.0166 51.0265 35.5343 50.4036 36.7838Z" fill="white"/>
<path d="M35.5 0.267181C15.9552 0.267181 0.110962 16.1114 0.110962 35.6562C0.110962 55.201 15.9552 71.0452 35.5 71.0452C55.0447 71.0452 70.8889 55.201 70.8889 35.6562C70.8682 16.1201 55.0362 0.288065 35.5 0.267181ZM50.4036 36.7838C50.1587 37.2752 49.7604 37.6736 49.2688 37.9186V37.9312L29.0465 48.0424C27.7977 48.6664 26.2795 48.16 25.6554 46.9111C25.4779 46.5561 25.3865 46.1642 25.3887 45.7674V25.5451C25.3882 24.149 26.5193 23.0168 27.9154 23.0161C28.308 23.0159 28.6954 23.1072 29.0465 23.2827L49.2688 33.3939C50.5183 34.0166 51.0265 35.5343 50.4036 36.7838Z" fill="url(#paint0_linear)" fill-opacity="0.77"/>
<defs>
<linearGradient id="paint0_linear" x1="35.5" y1="0.267181" x2="35.5" y2="71.0452" gradientUnits="userSpaceOnUse">
<stop stop-color="#720983"/>
<stop offset="1" stop-color="#BF029B"/>
</linearGradient>
</defs>
</svg>
