<svg width="71" height="71" viewBox="0 0 71 71" fill="none" xmlns="http://www.w3.org/2000/svg">
<g clip-path="url(#clip0)">
<path d="M35.389 0C15.8442 0 0 15.8442 0 35.389C0 54.9338 15.8442 70.778 35.389 70.778C54.9338 70.778 70.778 54.9338 70.778 35.389C70.7572 15.8529 54.9252 0.0208839 35.389 0ZM50.2927 36.5166C50.0477 37.008 49.6494 37.4064 49.1578 37.6514V37.664L28.9356 47.7752C27.6867 48.3992 26.1685 47.8928 25.5444 46.6439C25.367 46.2889 25.2756 45.897 25.2778 45.5002V25.2779C25.2772 23.8818 26.4083 22.7497 27.8044 22.7489C28.1971 22.7488 28.5844 22.84 28.9356 23.0155L49.1578 33.1267C50.4073 33.7494 50.9155 35.2671 50.2927 36.5166Z" fill="white"/>
</g>
<defs>
<clipPath id="clip0">
<rect width="70.7781" height="70.7781" fill="white"/>
</clipPath>
</defs>
</svg>
